<?xml version="1.0" encoding="utf-8"?>
<!-- Generator: Adobe Illustrator 26.5.0, SVG Export Plug-In . SVG Version: 6.00 Build 0)  -->
<svg version="1.1" id="Layer_1" xmlns="http://www.w3.org/2000/svg" xmlns:xlink="http://www.w3.org/1999/xlink" x="0px" y="0px"
	 viewBox="0 0 720 360" style="enable-background:new 0 0 720 360;" xml:space="preserve">
<style type="text/css">
	.st0{fill:#E1E2DF;}
</style>
<g>
	<g>
		<g>
			<polygon class="st0" points="304.6,117.4 282.7,117.4 282.7,216.6 282.7,235.9 282.7,238.8 341.4,238.8 341.4,216.6 304.6,216.6 
							"/>
			<path class="st0" d="M413.8,117.4h-11.3h-17.4h-10.8c-6.3,0-11.4,5.1-11.4,11.4v10.8v99.5h22.2v-31.4h17.4v31.4h22.2v-31.4v-22.2
				v-45.9v-11.3C424.7,122.3,419.8,117.4,413.8,117.4z M402.6,185.5h-17.4v-45.9h17.4V185.5z"/>
			<path class="st0" d="M624.7,117.4h-11.3H596h-10.8c-6.3,0-11.4,5.1-11.4,11.4v10.8v99.5H596v-31.4h17.4v31.4h22.2v-31.4v-22.2
				v-45.9v-11.3C635.6,122.3,630.8,117.4,624.7,117.4z M613.5,185.5H596v-45.9h17.4V185.5z"/>
			<rect x="444.5" y="117.4" class="st0" width="22.2" height="121.7"/>
			<polygon class="st0" points="559.4,118.6 535,118.6 511.8,167.1 511.8,117.4 489.6,117.4 489.6,239.1 511.8,239.1 511.8,200.2 
				535.1,239.1 559.5,239.1 527.5,185.5 			"/>
		</g>
		<g>
			<g>
				<g>
					<path class="st0" d="M247.3,175.1c0,24.5-10.6,47.7-29,63.5l0,0v-9.1c14.3-14.3,22.4-33.8,22.4-54.4c0-42-33.6-76.2-74.8-76.2
						S91,133.1,91,175.1c0,20.6,8.1,40.1,22.4,54.3v9.2c-18.4-15.8-29-39-29-63.5c0-45.8,36.5-83,81.4-83S247.3,129.3,247.3,175.1z"
						/>
				</g>
				<g>
					<polygon class="st0" points="156.3,230 176.5,230 166.5,267.9 					"/>
				</g>
				<g>
					<path class="st0" d="M217.4,142.4c0-0.3-0.3-0.6-0.7-0.9c-2.4-1.4-4.5-3.5-5.9-5.9c-0.3-0.5-0.6-0.7-0.9-0.7
						c-0.3,0-0.6,0.3-0.9,0.7c-1.4,2.4-3.5,4.5-5.9,5.9c-0.5,0.3-0.7,0.6-0.7,0.9s0.3,0.6,0.7,0.9c2.4,1.4,4.5,3.5,5.9,5.9
						c0.3,0.5,0.6,0.7,0.9,0.7c0.3,0,0.6-0.3,0.9-0.7c1.4-2.4,3.5-4.5,5.9-5.9C217.1,143,217.4,142.7,217.4,142.4z"/>
				</g>
				<g>
					<path class="st0" d="M226.5,154.7c0-0.2-0.1-0.4-0.4-0.5c-1.4-0.8-2.6-2-3.4-3.4c-0.2-0.3-0.3-0.4-0.5-0.4
						c-0.2,0-0.4,0.1-0.5,0.4c-0.8,1.4-2,2.6-3.4,3.4c-0.3,0.2-0.4,0.3-0.4,0.5c0,0.2,0.1,0.4,0.4,0.5c1.4,0.8,2.6,2,3.4,3.4
						c0.2,0.3,0.3,0.4,0.5,0.4c0.2,0,0.4-0.1,0.5-0.4c0.8-1.4,2-2.6,3.4-3.4C226.4,155.1,226.5,154.9,226.5,154.7z"/>
				</g>
				<g>
					<path class="st0" d="M209.6,235.6c-0.3-2.2-0.7-4.3-1-6.4c-0.6-3.4-1.6-8.8-2.3-12.2c-0.1-0.3-0.2-0.8-0.4-1.1
						c-1.1-1.9-2.3-3.3-3.7-5c0.4-1,0.8-1.9,0.6-3.1c-0.7-2.8-1.9-5.4-3-8c2-3.9-0.3-9.9-3.1-12.9c0,0,0,0,0,0
						c-0.3-0.7-0.2-1.6-0.2-2.6c0.1-1.8,0.3-3.6,0.5-5.4c0.1-1,0.2-2.1-0.1-3.2c-1.8-6.6-4.1-12.9-6.8-19.2
						c-0.1-0.3-0.5-0.8-0.6-1.1c-0.7-2.1-1-4.5-1.2-6.7c-0.2-2.3-1.2-4.8-0.6-6.8c0.3-1,0.6-2,0.6-3c0-2-0.5-3.9-1-5.8l-0.2-0.6
						c0-0.1,0-0.1-0.1-0.2c-0.2-0.8-0.7-1.4-1-2c-1.6-2.3-3.1-4.5-4.3-6.9c-1-2.8-3.4-4.8-6.3-5.6c1.4,2.6,2.6,5.7,2,8.6
						c-0.1,0.8-0.3,1.7-0.6,2.5c-0.1-1.6-0.2-3.4-0.7-4.8c-0.7-1.7-1.7-3.4-2.8-4.9c0,0,0,0,0,0c0,0,0,0,0-0.1
						c-0.1-0.1-0.1-0.2-0.2-0.2c-0.1-0.1-0.1-0.1-0.1-0.1c0,0-0.1,0-0.1-0.1c-0.1,0-0.1,0-0.1-0.1l-0.1,0c-1.1-0.6-3.3-1.2-7.1-1.2
						c-6.9-0.1-7.4,1.3-7.4,1.3c0,0,0,0-0.1,0.1c-1.5,2.3-3.2,4.7-3.4,7.5c-0.1,0.8-0.1,1.6-0.1,2.5c0,0.1-0.2,0.2-0.2,0
						c-0.5-1.7-0.9-3.3-0.7-5.2c0.3-1.8,0.9-3.4,1.7-5c0.1-0.3,0.3-0.6,0.5-1c-2.8,0.8-5.3,2.8-6.3,5.6c-1.3,3-3.4,5.4-5.1,8.3
						c-0.1,0.1-0.1,0.4-0.2,0.6c0,0.1,0,0.1-0.1,0.2c-0.3,1.1-0.7,2.2-0.9,3.4c-0.4,1.9-0.5,4.1,0.2,6c0.4,1.5,0.1,3.1-0.3,4.9
						c-0.1,0.5-0.3,1.3-0.3,1.9l0,0.3l-0.1,0.6c-0.3,2-0.5,4.2-1.3,6.1c0,0.1-0.4,0.7-0.5,0.8l-0.3,0.7c-2.2,5.2-4,10.4-5.7,15.8
						c-0.4,1.1-0.7,2.3-0.9,3.5c-0.2,2.6,0.5,5.3,0.5,7.8c0,0.9,0.1,1.9-0.2,2.6c0,0,0,0,0,0c0,0,0,0,0,0c0,0,0,0,0,0c0,0,0,0,0,0
						c-2.8,3-5.1,9-3.1,12.9c-1.1,2.5-2.2,5.1-3,7.8c-0.2,1.3,0.1,2.3,0.6,3.3c-1.3,1.6-2.6,3.1-3.7,5c-0.3,0.6-0.4,1.3-0.5,1.9
						c-0.6,3-1.6,8.3-2.1,11.4c-0.3,1.9-0.9,5.4-1,6.3c-0.2,0.8-0.4,1.5-0.3,2.6c0.5,3.2,4.4,3.2,6.6,1.8c1.5-1,2.6-2.6,3.6-3.9
						c1.3-1.7,3.3-4.2,4.7-5.7c0.3-0.3,0.6-0.6,1-0.9l1.7-0.9c4-2.2,11.4-5.8,12.5-10.8v-8.6h3.6v9.2h21.3v-9.2h3.7v11
						c2.7,4.2,9.5,7.4,13.4,9.4c3.1,2.7,5.3,6.5,8.1,9.5c1.8,1.9,6,2.8,7.4-0.1C210.1,237.9,209.8,236.6,209.6,235.6z M153.1,162.6
						l-5.4,3.5c-0.1,0.2-0.2,0.3-0.4,0.4c-0.2,0.1-0.4,0.2-0.6,0.2c-0.3,0-0.6-0.2-0.9-0.4c-0.7-1-1-2.1-0.7-3.3
						c0.2-1.2,0.9-2.2,1.9-2.8c2.1-1.4,4.9-0.9,6.3,1.1C153.7,161.6,153.6,162.3,153.1,162.6z M185.3,166.2
						c-0.2,0.3-0.5,0.4-0.9,0.4c-0.2,0-0.4-0.1-0.6-0.2c-0.2-0.1-0.3-0.3-0.4-0.4l-5.4-3.5c-0.5-0.3-0.6-1-0.3-1.4
						c1.4-2,4.3-2.5,6.3-1.1c1,0.7,1.7,1.7,1.9,2.8C186.3,164.1,186,165.3,185.3,166.2z"/>
				</g>
			</g>
		</g>
	</g>
</g>
</svg>
