<?xml version="1.0" encoding="utf-8"?>
<!-- Generator: Adobe Illustrator 26.5.0, SVG Export Plug-In . SVG Version: 6.00 Build 0)  -->
<svg version="1.1" id="Layer_1" xmlns="http://www.w3.org/2000/svg" xmlns:xlink="http://www.w3.org/1999/xlink" x="0px" y="0px"
	 viewBox="0 0 360 360" style="enable-background:new 0 0 360 360;" xml:space="preserve">
<style type="text/css">
	.st0{fill:#E1E2DF;}
</style>
<g>
	<g>
		<g>
			<g>
				<path class="st0" d="M318.7,170.1c0,41.7-18,81.1-49.4,108l0,0v-15.6c24.3-24.3,38-57.5,38-92.5c0-71.5-57.1-129.7-127.2-129.7
					S52.9,98.6,52.9,170.1c0,35,13.7,68.1,38,92.5v15.6c-31.4-26.9-49.4-66.3-49.4-108c0-77.9,62.2-141.2,138.6-141.2
					S318.7,92.3,318.7,170.1z"/>
			</g>
			<g>
				<polygon class="st0" points="163.9,263.6 198.2,263.6 181.4,328.1 				"/>
			</g>
			<g>
				<path class="st0" d="M267.9,114.5c0-0.6-0.4-1.1-1.2-1.5c-4.2-2.5-7.7-6-10.1-10.1c-0.5-0.8-1-1.2-1.5-1.2
					c-0.6,0-1.1,0.4-1.5,1.2c-2.5,4.2-6,7.7-10.1,10.1c-0.8,0.5-1.2,1-1.2,1.5c0,0.6,0.4,1.1,1.2,1.5c4.2,2.5,7.7,6,10.1,10.1
					c0.5,0.8,1,1.2,1.5,1.2c0.6,0,1.1-0.4,1.5-1.2c2.5-4.2,6-7.7,10.1-10.1C267.5,115.5,267.9,115,267.9,114.5z"/>
			</g>
			<g>
				<path class="st0" d="M283.4,135.5c0-0.3-0.3-0.6-0.7-0.9c-2.4-1.4-4.4-3.4-5.8-5.8c-0.3-0.5-0.6-0.7-0.9-0.7
					c-0.3,0-0.6,0.3-0.9,0.7c-1.4,2.4-3.4,4.4-5.8,5.8c-0.5,0.3-0.7,0.6-0.7,0.9c0,0.3,0.3,0.6,0.7,0.9c2.4,1.4,4.4,3.4,5.8,5.8
					c0.3,0.5,0.6,0.7,0.9,0.7c0.3,0,0.6-0.3,0.9-0.7c1.4-2.4,3.4-4.4,5.8-5.8C283.2,136.1,283.4,135.8,283.4,135.5z"/>
			</g>
			<g>
				<path class="st0" d="M254.6,273.1c-0.5-3.7-1.1-7.3-1.7-10.9c-1.1-5.8-2.6-15-3.9-20.8c-0.1-0.5-0.3-1.4-0.6-1.9
					c-1.8-3.2-4-5.7-6.2-8.4c0.7-1.6,1.3-3.2,1.1-5.3c-1.2-4.7-3.2-9.1-5.2-13.6c3.5-6.7-0.5-16.8-5.2-21.9c0,0,0,0,0,0
					c-0.5-1.1-0.4-2.8-0.4-4.4c0.1-3,0.5-6.1,0.9-9.2c0.2-1.7,0.3-3.7-0.2-5.4c-3.1-11.2-7-22-11.6-32.7c-0.2-0.6-0.9-1.4-1.1-1.9
					c-1.2-3.6-1.7-7.6-2-11.4c-0.4-3.9-2-8.2-1-11.6c0.6-1.6,1-3.4,0.9-5.1c0-3.4-0.8-6.7-1.7-9.8l-0.3-1.1c0-0.2,0-0.2-0.1-0.4
					c-0.3-1.4-1.1-2.4-1.7-3.4c-2.6-4-5.3-7.6-7.3-11.8c-1.7-4.7-5.8-8.1-10.7-9.5c2.3,4.4,4.5,9.6,3.4,14.7c-0.2,1.4-0.6,2.8-1,4.2
					c-0.2-2.7-0.3-5.7-1.1-8.2c-1.2-2.8-2.9-5.8-4.7-8.3c0,0,0,0,0,0c0,0,0-0.1-0.1-0.1c-0.1-0.1-0.2-0.3-0.3-0.4
					c-0.1-0.2-0.1-0.1-0.2-0.2c0,0-0.1-0.1-0.2-0.1c-0.1,0-0.2-0.1-0.2-0.1l-0.1,0c-1.8-1.1-5.7-2-12.1-2
					c-11.8-0.1-12.6,2.2-12.6,2.2c0,0,0,0-0.2,0.2c-2.6,3.9-5.4,7.9-5.7,12.7c-0.1,1.4-0.2,2.8-0.2,4.2c0,0.2-0.4,0.3-0.4,0
					c-0.8-2.9-1.5-5.7-1.1-8.8c0.6-3.1,1.6-5.7,2.9-8.5c0.2-0.5,0.5-1.1,0.8-1.6c-4.8,1.3-8.9,4.8-10.7,9.5
					c-2.2,5.1-5.8,9.2-8.6,14.2c-0.1,0.2-0.2,0.7-0.3,1.1c0,0.2,0,0.2-0.1,0.4c-0.5,1.9-1.1,3.8-1.5,5.8c-0.7,3.3-0.9,7,0.4,10.2
					c0.6,2.5,0.2,5.3-0.4,8.3c-0.2,0.9-0.5,2.2-0.5,3.3l0,0.5l-0.1,1.1c-0.4,3.4-0.8,7.2-2.1,10.3c-0.1,0.1-0.8,1.1-0.8,1.4
					l-0.5,1.2c-3.7,8.9-6.8,17.7-9.7,26.9c-0.6,2-1.2,3.9-1.6,6c-0.4,4.5,0.9,9,0.9,13.3c0,1.6,0.1,3.3-0.3,4.4c0,0,0,0,0,0
					c0,0,0,0,0,0c0,0,0,0,0,0c0,0,0,0,0,0c-4.7,5.1-8.7,15.2-5.2,21.9c-1.9,4.3-3.8,8.6-5.1,13.2c-0.4,2.2,0.2,3.9,1,5.7
					c-2.2,2.8-4.4,5.3-6.2,8.4c-0.5,1-0.7,2.2-0.9,3.3c-1,5.1-2.6,14.1-3.6,19.3c-0.5,3.1-1.6,9.1-1.7,10.7
					c-0.3,1.3-0.7,2.6-0.5,4.4c0.9,5.4,7.5,5.4,11.2,3c2.6-1.7,4.4-4.5,6.2-6.7c2.2-2.9,5.6-7.1,8-9.7c0.6-0.6,1.1-1.1,1.7-1.5
					l3-1.5c6.9-3.7,19.4-9.9,21.2-18.4V228h6.2v15.6h36.2V228h6.2v18.7c4.6,7.2,16.2,12.6,22.8,16c5.2,4.6,9,11.1,13.8,16.2
					c3,3.2,10.2,4.7,12.6-0.1C255.4,276.9,255,274.7,254.6,273.1z M158.5,148.9l-9.1,5.9c-0.1,0.3-0.3,0.5-0.6,0.7
					c-0.3,0.2-0.7,0.3-1,0.3c-0.5,0-1.1-0.3-1.5-0.7c-1.2-1.6-1.6-3.6-1.3-5.6c0.4-2,1.5-3.7,3.2-4.8c3.5-2.4,8.3-1.5,10.8,1.9
					C159.5,147.2,159.3,148.3,158.5,148.9z M213.3,155.1c-0.3,0.5-0.9,0.7-1.5,0.7c-0.4,0-0.7-0.1-1-0.3c-0.3-0.2-0.5-0.4-0.6-0.7
					l-9.1-5.9c-0.8-0.5-1-1.6-0.4-2.4c2.4-3.4,7.3-4.2,10.8-1.9c1.7,1.1,2.8,2.9,3.2,4.8C215,151.4,214.5,153.4,213.3,155.1z"/>
			</g>
		</g>
	</g>
</g>
</svg>
